<?xml version="1.0" encoding="utf-8"?>
<!-- Generator: Adobe Illustrator 23.1.0, SVG Export Plug-In . SVG Version: 6.00 Build 0)  -->
<svg version="1.1" id="Layer_1" xmlns="http://www.w3.org/2000/svg" xmlns:xlink="http://www.w3.org/1999/xlink" x="0px" y="0px"
	 viewBox="0 0 140 140" style="enable-background:new 0 0 140 140;" xml:space="preserve">
<style type="text/css">
	.st0{fill:#48298F;}
	.st1{fill:#8DCBE4;}
	.st2{fill:#90CAE6;}
	.st3{fill:#E7CBC6;}
	.st4{fill:#92C9E7;}
	.st5{fill:#95C8E9;}
	.st6{fill:#B0C0F7;}
	.st7{fill:#9DC6ED;}
	.st8{fill:#E8CFC5;}
	.st9{fill:#A0C5EF;}
	.st10{fill:#B5BEFA;}
	.st11{fill:#97C8EA;}
	.st12{fill:#9BC7EC;}
	.st13{fill:#A2C4F0;}
	.st14{fill:#E9D4C3;}
	.st15{fill:#A5C3F1;}
	.st16{fill:#A7C3F2;}
	.st17{fill:#ABC1F4;}
	.st18{fill:#BCBCFD;}
	.st19{fill:#A9C2F3;}
	.st20{fill:#B3BFF8;}
	.st21{fill:#99C7EB;}
	.st22{fill:#EAD7C2;}
	.st23{fill:#EBDBC1;}
	.st24{fill:#B8BDFB;}
	.st25{fill:#B4BFF9;}
	.st26{fill:#ECDFC0;}
	.st27{fill:#BABCFC;}
	.st28{fill:#EFECBB;}
	.st29{fill:#A8D2DC;}
	.st30{fill:#AEC0F6;}
	.st31{fill:#EDE3BE;}
	.st32{fill:#EDE5BE;}
	.st33{fill:#EEE9BC;}
</style>
<g>
	<path class="st0" d="M123.1,140H16.9C7.6,140,0,132.4,0,123.1V16.9C0,7.6,7.6,0,16.9,0h106.2c9.3,0,16.9,7.6,16.9,16.9v106.2
		C140,132.4,132.4,140,123.1,140z"/>
	<path class="st1" d="M68.7,98.1c-1.7,1.7-3.2,3.5-5,5.1c-2,1.8-4.1,1.3-6.5-1.1c-4.2-4.4-8.6-8.6-12.9-12.9
		c-0.1-0.1-0.3-0.3-0.4-0.4c-0.6-1.2-0.3-2.3,0.4-3.4c0.5-0.5,1-1,1.8-1.1c0.9,0,1.7,0.3,2.3,0.9c2.7,2.4,6.2,3.7,9.2,5.7
		c3.2,2.1,6.7,3.8,10,5.8C68.2,96.9,69.2,97,68.7,98.1z"/>
	<path class="st2" d="M68.7,98.1c-1.8-2-4.4-2.8-6.6-4.2c-2.5-1.6-5.3-2.6-7.6-4.6c-0.8-0.7-1.8-1.1-2.8-1.4
		c-2.1-0.7-3.3-2.9-5.6-3.4c0.8-2.1,2.4-3.5,4.4-4.5c3,1,5.4,3.2,8.2,4.7c4.6,2.4,8.9,5.3,13.3,8c0.4,0.3,1.1,0.4,1,1.1
		C71.7,95.3,70.3,96.8,68.7,98.1z"/>
	<path class="st3" d="M28.7,66.2c4.1-4.1,8.1-8.3,12.2-12.3c1.5-1.5,3.7-1.2,5.4,0.5c1.6,1.5,3,3.2,4.6,4.8c0.3,1.4-0.9,1.4-1.6,1.6
		c-4,1.4-8,2.6-12.1,3.8c-2.3,0.7-4.6,1.4-6.8,2.1C29.8,66.8,29,67.4,28.7,66.2z"/>
	<path class="st4" d="M73,93.8c-5.9-3.7-11.8-7.3-17.9-10.7c-1.6-0.9-3.1-1.9-4.7-2.9c0.4-1.8,1.7-2.7,3.3-3.5
		c2.2,0.6,4,1.8,5.8,3.1c2.8,2,5.9,3.3,8.7,5.1c2.3,1.4,4.5,3.1,7,4.2c0.5,0.2,1.1,0.6,1,1.3C75.2,91.6,74.4,92.9,73,93.8z"/>
	<path class="st5" d="M76.2,90.5c-2.1-1.3-4.2-2.8-6.4-4c-5.4-3.2-10.8-6.3-16.1-9.5c0.5-1.7,1.6-2.8,3.3-3.3
		c3.7,2,7.2,4.3,10.8,6.5c3.3,2,6.7,3.8,9.8,6c0.6,0.4,1.7,0.7,1.1,1.8C78.1,89,77.3,89.9,76.2,90.5z"/>
	<path class="st6" d="M103.8,62.7c-1,1.7-2.5,2.9-3.9,4.3c-1.2,1.2-2.3,2.5-3.7,3.5c-0.1-0.1-0.2-0.3-0.2-0.4
		c0.1-0.7,0.7-1.1,1.1-1.5c0.7-0.7,1.5-1.5,2.2-2.2c0.2-0.2,0.4-0.4,0.6-0.6c1.1-1.2,1.1-1.7-0.4-2.6c-2.1-1.3-4.3-2.2-6.4-3.5
		c-4.1-2.6-8.4-4.9-12.4-7.6c-0.3-0.2-0.7-0.5-0.8-0.9c0-0.8,0.8-1.1,1.2-1.6c0.5-0.4,0.9-1.1,1.6-1.2c2.2,0.5,3.7,2.3,5.6,3.4
		c3.7,2.3,7.5,4.5,11.3,6.6c1.6,0.9,2.9,2.1,4.5,2.8C105.4,61.6,104.3,62.2,103.8,62.7z"/>
	<path class="st7" d="M85.9,80.9c-0.2,0.5-0.5,0.9-1.1,1c-5-2.7-9.7-5.9-14.6-8.8c-1.9-1.1-3.7-2.2-5.5-3.3
		c-0.8-0.5-1.8-0.8-2.1-1.8c0.8-0.8,1.7-1.7,2.5-2.5c1.5-0.4,2.4,0.8,3.5,1.4c5.4,3,10.4,6.9,16,9.6c0.7,0.4,1.4,0.9,2,1.5
		c0.5,0.5,1,1.1,0.4,1.8l0,0C86.5,80.1,86.2,80.5,85.9,80.9z"/>
	<path class="st8" d="M28.7,66.2c0.3,0.4,0.6,0.3,0.9,0.1c6.6-2.1,13.2-4.1,19.8-6.1c0.6-0.2,1.3-0.2,1.5-1.1c1,0.7,1.8,1.5,2.5,2.5
		c0.4,1.3-0.7,1.4-1.5,1.7c-3.2,1.2-6.5,1.9-9.7,3c-4.4,1.5-8.9,2.5-13.3,4c-0.6,0.2-1.3,0.7-2,0.2C26,68.5,27.2,67.3,28.7,66.2z"/>
	<path class="st9" d="M87,79.8c0-1.8-1.6-2.5-2.7-3c-3.8-1.6-7-4.2-10.5-6.3c-2.9-1.7-5.8-3.4-8.7-5.1c0.7-1,1.6-1.8,2.5-2.6
		c0.7,0.2,1.3,0.6,1.9,1c3.4,2.6,7.3,4.2,10.7,6.7c2.3,1.7,5.1,2.5,7.4,4.2c0.7,0.5,1.4,0.8,1.9,1.5c0.1,0.2,0.1,0.3,0.1,0.5
		c-0.6,0.8-1.4,1.4-2,2.2C87.6,79.4,87.3,79.7,87,79.8z"/>
	<path class="st10" d="M109.9,56.6c-0.6,0.8-1.3,1.6-2.1,2.2c-5.1-2.8-10.2-5.8-15.3-8.8c-1.5-0.9-3-1.8-4.5-2.6
		c-0.9-0.5-1.9-1-2.3-2.1c0.5-1.1,1.3-1.9,2.3-2.4c2.9,1.2,5.4,3.1,8.2,4.7c4.3,2.5,8.5,5.1,12.7,7.9
		C109.3,55.7,110.1,55.8,109.9,56.6z"/>
	<path class="st11" d="M78.8,88c-1-1.8-2.9-2.5-4.5-3.5c-5.6-3.5-11.3-6.9-17-10.4c-0.1-0.1-0.2-0.3-0.3-0.4c0-1.2,0.8-1.7,1.8-2
		c2.8,0.6,4.9,2.5,7.3,4c4.2,2.5,8.4,5.1,12.7,7.6c0.9,0.6,2.4,0.7,2.5,2.2C80.6,86.5,79.7,87.4,78.8,88z"/>
	<path class="st12" d="M62.6,68c3,2,6.3,3.6,9.3,5.6c2.7,1.8,5.6,3,8.1,5c1.2,0.9,2.6,1.6,4,2.3c0.5,0.2,0.8,0.5,0.9,1
		c-0.6,0.6-1.2,1.2-1.8,1.8c-1.6-0.2-2.9-1.1-4.2-1.9c-5.7-3.5-11.4-6.8-17.1-10.3c-0.5-0.3-1-0.6-1.4-1.1c-0.1-0.2-0.2-0.5-0.1-0.8
		c0-0.2,0.2-0.3,0.3-0.4C61.6,69.3,61.9,68.4,62.6,68z"/>
	<path class="st13" d="M89.5,76.6c-2.6-1.7-5.2-3.6-8.1-4.8c-1.2-0.5-2.1-1.5-3.2-2.2c-3.2-1.9-6.5-3.8-9.7-5.8
		c-0.3-0.2-0.5-0.6-0.8-0.9c0.6-0.6,1.2-1.2,1.8-1.8c2.2,0.3,3.8,1.8,5.7,2.8c4.9,2.8,9.7,5.8,14.6,8.6c0.8,0.4,1.6,0.9,2.1,1.6
		c0.1,0.2,0.1,0.3,0.1,0.5C91,75.4,90.7,76.5,89.5,76.6z"/>
	<path class="st14" d="M26.9,70.6c5.9-1.8,11.8-3.7,17.7-5.5c2.5-0.8,5-1.5,7.4-2.3c0.6-0.2,1.3-0.3,1.3-1.2
		c0.9,0.6,1.6,1.3,2.1,2.1c0.4,1.2-0.6,1.3-1.2,1.5c-2.4,0.8-4.9,1.6-7.3,2.3c-6,1.8-12,3.7-18,5.6c-0.9,0.2-1.4-0.4-1.7-1.1
		C26.8,71.6,26.9,71,26.9,70.6z"/>
	<path class="st15" d="M91.6,74.5c-6.8-4-13.5-8.1-20.3-12.1c-0.7-0.4-1.3-0.8-2-1.2c0.7-0.7,1.4-1.4,2.1-2.1
		c1.8,0.5,3.2,1.6,4.8,2.5c3.7,2.1,7.3,4.2,10.8,6.6c2.2,1.4,4.6,2.4,6.7,4c0.1,0.2,0.1,0.3,0.1,0.5C93.2,73.3,92.8,74.4,91.6,74.5z
		"/>
	<path class="st16" d="M93.8,72.3c-3.4-1.6-6.6-3.7-9.8-5.6c-3.5-2.1-6.8-4.5-10.5-6.1c-0.8-0.4-1.2-1.2-1.9-1.5
		c0.6-0.6,1.2-1.2,1.8-1.8c0.6-0.4,1-0.1,1.5,0.2c6.7,4.1,13.5,8,20.1,12.2c0.3,0.2,0.6,0.4,0.8,0.7C95.4,71.5,94.9,72.1,93.8,72.3z
		"/>
	<path class="st17" d="M99.5,66.6c-0.6,0.9-1.3,1.6-2.1,2.1c-2-0.5-3.6-1.9-5.3-2.9c-5.6-3.5-11.5-6.6-17-10.4
		c0.2-0.2,0.5-0.5,0.7-0.7c0.6-0.5,1-1.4,1.9-1.6c2.3,1.1,4.3,2.8,6.5,4c4.8,2.6,9.4,5.6,14.1,8.4C98.8,65.8,99.4,66,99.5,66.6z"/>
	<path class="st18" d="M88.1,43c-0.9,0.6-1.6,1.3-2.1,2.1c-0.2,0.6-0.7,1.1-1.2,1.5c-0.1,0.1-0.3,0.1-0.5,0.1
		c-0.2,0-0.3-0.1-0.4-0.2c3.5-3.9,7.3-7.5,11-11.1c1.4-1.4,4-1.3,5.5,0.3c4.1,4.3,8.4,8.4,12.6,12.6c1.7,1.8,1.7,3.7-0.2,5.3
		c-0.1-0.1-0.2-0.3-0.2-0.5c0-0.2,0-0.3,0.1-0.5c1.2-2.6-0.3-4.2-2.5-5.5c-1-0.6-2-1.2-3-1.8c-3.8-2.3-7.6-4.6-11.4-6.9
		c-1.5-0.9-2.5-0.7-3.4,0.6c-0.2,0.2-0.4,0.4-0.6,0.6c-0.6,0.6-1.3,1.2-1.9,1.8C89.2,42.2,88.8,42.8,88.1,43z"/>
	<path class="st19" d="M75.1,55.5c1.9,0.2,3.2,1.6,4.7,2.4c5,2.9,10,6,14.9,9c0.9,0.6,1.7,1.2,2.6,1.8c-0.4,0.5-0.7,1-1.1,1.4
		c-0.2,0.2-0.3,0.6-0.7,0.4c-2.9-1.8-5.8-3.7-8.8-5.4c-4.6-2.5-8.8-5.6-13.4-7.9C73.8,56.6,74.4,56,75.1,55.5z"/>
	<path class="st20" d="M84.1,46.6c0.1,0,0.2,0,0.4,0c3.1,1.4,6.1,3.1,8.9,5.1c1.6,1.1,3.4,1.9,5.1,2.9c1.9,1.2,3.7,2.5,5.8,3.5
		c0.9,0.4,2,0.8,2.1,2.2l0,0c-0.4,0.6-0.9,1-1.4,1.5c-0.1,0.6-0.5,1-1.1,1.1c0.5-0.7,0.8-1.1-0.4-1.8c-2.5-1.2-4.7-2.9-7.2-4.2
		c-4.7-2.5-9-5.6-13.6-8.4c-0.1-0.1-0.1-0.2-0.1-0.3c0-0.1,0-0.2,0.1-0.2C83.1,47.4,83.6,46.9,84.1,46.6z"/>
	<path class="st21" d="M60.5,70.2c3.1,2,6.4,3.8,9.6,5.7c3.6,2.1,7.1,4.2,10.5,6.4c0.8,0.5,1.9,0.5,2.4,1.4
		c-0.6,0.6-1.2,1.2-1.8,1.8c-2.2-1.9-4.9-3-7.3-4.5c-4.2-2.7-8.5-5.3-12.8-7.9c-0.7-0.5-1.6-0.8-2.4-1.2
		C58.8,70.8,59.4,70.2,60.5,70.2z"/>
	<path class="st22" d="M28.7,73.1c1.5-1.5,3.7-1.5,5.5-2.1c3.5-1.2,6.9-2.3,10.4-3.3c3.2-0.9,6.2-2.1,9.4-2.8
		c0.6-0.1,1.3-0.2,1.4-1.1c0.8,0.4,1.2,1.2,1.8,1.8c0.1,1-0.7,1.2-1.4,1.4c-8.4,2.6-16.8,5.2-25.3,7.7c-0.1,0-0.2,0-0.4,0
		C29.4,74.6,28.7,74.2,28.7,73.1z"/>
	<path class="st23" d="M30.1,74.5c5.2-2,10.6-3.3,15.9-5c3.3-1.1,6.6-2.3,10-3c0.5-0.1,1-0.4,1.3-0.9c0.8,0.3,1.1,1.1,1.5,1.7
		c-0.1,1.2-1.2,1.2-1.9,1.5c-5.2,1.8-10.6,3.3-15.9,5c-3,0.8-5.9,1.8-8.9,2.7C30.9,76.3,30.2,75.7,30.1,74.5z"/>
	<path class="st24" d="M89.5,41.6c0.5-0.7,1.1-1.3,1.8-1.8c4.1,2.6,8.5,4.6,12.5,7.5c2.5,1.7,5.3,2.9,7.8,4.6
		c0.4,0.3,1.2,0.4,1.1,1.2c0,0.1,0,0.2,0,0.4c-0.3,0.5-0.7,0.9-1.1,1.4c-0.1,0.3-0.4,0.6-0.7,0.7c-3.2-2.5-6.7-4.4-10.2-6.5
		c-3.4-2.1-6.8-4.1-10.2-6.2C90.1,42.5,89.6,42.2,89.5,41.6z"/>
	<path class="st24" d="M89.5,41.6c4.3,2.6,8.5,5.1,12.8,7.7c2.5,1.5,4.9,3,7.4,4.6c0.6,0.4,1.2,0.8,1.3,1.6c-0.3,0.4-0.7,0.8-1,1.2
		c-3.8-2.5-7.7-5-11.6-7.3c-3.4-2-7-3.9-10.2-6.3C88.4,42.4,88.9,41.9,89.5,41.6z"/>
	<path class="st25" d="M106.3,60.2c-0.7-0.8-1.6-1.4-2.5-2c-4.7-2.8-9.4-5.6-14.1-8.4c-1.3-0.8-2.6-1.5-3.9-2.1
		c-0.6-0.3-1-0.6-1.3-1.1c0.3-0.6,0.8-1.1,1.4-1.4c2.7,2.5,6.1,3.7,9.1,5.7c3.8,2.5,8,4.6,11.9,7c0.3,0.2,0.5,0.6,0.8,0.9
		C107.5,59.4,107,59.9,106.3,60.2z"/>
	<path class="st26" d="M40.8,73.4c5.1-2,10.5-3.2,15.7-5.1c0.8-0.3,1.7-0.3,2.2-1.1c0.7,0.5,1.3,1.1,1.8,1.8c0,0.1,0,0.2-0.1,0.4
		c-0.2,0.3-0.5,0.6-0.9,0.7c-5.3,1.2-10.4,3.3-15.7,4.7c-2.1,0.6-4.2,1-6.2,1.8c-0.4,0.2-0.8,0.2-1.2,0c-0.5-0.6-0.4-1.3,0.3-1.4
		C38.4,75,39.5,73.9,40.8,73.4z"/>
	<path class="st20" d="M77.7,53.4c-0.6,0.5-1.2,0.9-1.9,1.4c0.8-1.5,2.1-2.5,3.3-3.5c0.1-0.1,0.3-0.1,0.4,0
		C79.4,52.4,78.6,52.9,77.7,53.4z"/>
	<path class="st17" d="M95.6,70.5c0.2-0.1,0.5-0.2,0.7-0.4c0,0.1,0,0.2,0,0.3c-0.7,1-1.5,1.8-2.5,2.5c-0.1-0.1-0.1-0.1-0.1-0.2
		c0-0.1,0.1-0.1,0.1-0.1c0-0.1,0-0.2,0-0.4C94.5,71.9,95.1,71.3,95.6,70.5z"/>
	<path class="st19" d="M93.8,72.7c0,0.1,0,0.2,0,0.3c-0.6,0.9-1.3,1.6-2.1,2.2c-0.1-0.1-0.1-0.1-0.1-0.2c0-0.1,0.1-0.1,0.1-0.1
		c0-0.1,0-0.2,0-0.4C92.4,73.9,93.1,73.3,93.8,72.7z"/>
	<path class="st15" d="M91.6,74.8c0,0.1,0,0.2,0,0.3c-0.6,0.9-1.3,1.6-2.1,2.1c-0.1-0.1-0.1-0.1-0.1-0.2c0-0.1,0.1-0.1,0.1-0.1
		c0-0.1,0-0.2,0-0.4C90.2,76,90.9,75.4,91.6,74.8z"/>
	<path class="st10" d="M79.5,51.2c-0.1,0-0.2,0-0.3,0c0.4-0.8,1-1.3,1.8-1.8c0.1-0.2,0.2-0.2,0.3,0c-0.4,0.5-0.7,0.9-1.1,1.4
		C80,51.1,79.9,51.4,79.5,51.2z"/>
	<path class="st13" d="M89.5,77c0,0.1,0,0.2,0,0.3c-0.5,0.7-1,1.4-1.8,1.8C87.9,78.1,88.7,77.5,89.5,77z"/>
	<path class="st24" d="M81.3,49.4l-0.2,0c0,0-0.2,0-0.2,0c0.3-0.6,0.8-1.1,1.4-1.4c0.1-0.2,0.2-0.2,0.3,0c0,0.1,0,0.2,0,0.4
		C82.2,48.7,81.8,49.1,81.3,49.4z"/>
	<path class="st27" d="M82.7,48l-0.2,0c0,0-0.2,0-0.2,0c0.3-0.6,0.8-1.1,1.4-1.4c0.1,0,0.2,0,0.3,0C83.8,47.2,83.3,47.7,82.7,48z"/>
	<path class="st25" d="M104.9,61.6c0.3-0.7,0.8-1.1,1.4-1.5C106.2,61,105.7,61.4,104.9,61.6z"/>
	<path class="st27" d="M111.7,54.8c0-0.7,0.5-1.1,1.1-1.4c0,0.1,0,0.2,0,0.3C112.5,54.2,112.2,54.6,111.7,54.8z"/>
	<path class="st9" d="M85.9,80.9c0.1-0.6,0.4-1,1-1C86.7,80.3,86.4,80.7,85.9,80.9z"/>
	<path class="st28" d="M44.4,88.8c-2.1-1.9-4.2-3.9-6.1-6.1c0.9-1.3,2.4-1.1,3.6-1.6c2-0.8,4.1-1.2,6.1-1.9c0.6-0.2,1.3-0.2,1.9,0
		c0.8,0.8-0.1,1.1-0.5,1.5c-1.5,1.7-3.3,3.1-4.7,4.9C44.1,86.6,44.1,87.7,44.4,88.8z"/>
	<path class="st29" d="M44.8,85.6c0.5-1.6,2.1-2.4,3.1-3.6c0.7-0.9,1.5-1.7,2.3-2.5c0.8-1.7,2.5-2.7,3.7-4.1
		c1.1-1.1,2.2-2.1,3.2-3.2c0.9-0.8,1.6-1.8,2.7-2.3c0.2-0.1,0.5-0.2,0.7-0.4c0,0.2,0,0.5,0,0.7c-0.7,0.5-1.3,1.1-1.8,1.8
		c-0.7,0.5-1.3,1.1-1.8,1.8c-1.2,0.9-2.3,2-3.2,3.2c-1.2,0.9-2.3,2-3.2,3.2c-1.6,1.3-3,2.7-4.3,4.3C45.7,84.8,45.3,85.2,44.8,85.6z"
		/>
	<path class="st30" d="M79.5,51.2c0.2-0.1,0.5-0.2,0.7-0.4c3,2.1,6,4,9.2,5.7c1.7,0.9,3.1,2.2,4.8,3c1.7,0.8,3.2,1.9,4.9,2.7
		c3.4,1.8,2.8,2.5,0.4,4.3c-3.8-2.3-7.6-4.6-11.4-6.9c-2-1.2-4-2.4-6-3.4c-1.6-0.8-2.9-2-4.4-3C78.3,52.7,78.9,51.9,79.5,51.2z"/>
	<path class="st27" d="M112.8,53c-2.2-1.3-4.3-2.9-6.7-3.9c-2-0.9-3.6-2.2-5.4-3.4c-2.4-1.6-5.1-2.7-7.6-4.3
		c-0.7-0.5-1.4-0.9-1.8-1.6c2.3-2.9,3-3.1,6-0.9c3,2.2,6.4,3.6,9.3,5.8c2,1.5,4.6,2.1,6.2,4.2C113.7,50.1,113.8,51.8,112.8,53z"/>
	<path class="st26" d="M40.8,73.4c-1.2,0.8-2,2.4-3.8,2.2c-0.5,0-0.4,0.6-0.5,1c-0.8,1.1-2.1,1.1-3.3,1.1c-0.6-0.4-1.1-0.8-1.4-1.4
		c0.7-0.9,1.8-0.8,2.7-1.1C36.6,74.4,38.7,73.8,40.8,73.4z"/>
	<path class="st31" d="M33.3,77.7c1-0.8,2.2-0.6,3.3-1.1c4.8-1.9,9.9-2.7,14.7-4.5c2.7-1,5.6-2,8.5-2.3c-0.7,1-1.5,1.8-2.5,2.5
		c-2.4,1.2-4.9,1.8-7.4,2.6c-4.6,1.4-9.2,2.8-13.8,4.1c-0.5,0.1-0.9,0.2-1.4,0.1C34.1,78.8,33.7,78.3,33.3,77.7z"/>
	<path class="st32" d="M34.7,79.1c4.5-1.7,9.2-2.8,13.7-4.3c2.1-0.7,4.3-1.4,6.4-2c0.8-0.2,1.6-0.6,2.4-0.5c-1,1.2-2,2.3-3.2,3.2
		c-5.5,2.1-11.3,3.3-16.9,5.3c-0.2,0.1-0.5,0.1-0.7,0.1C35.8,80.5,35.2,79.9,34.7,79.1z"/>
	<path class="st33" d="M36.5,80.9c2.3-1.7,5.2-2,7.8-2.8c2.5-0.8,5.1-1.5,7.6-2.4c0.7-0.3,1.4-0.7,2.2-0.2c-1.2,1.4-2.5,2.7-3.9,3.9
		c-2.6-0.2-4.9,1.3-7.3,1.7c-1.5,0.3-3,1-4.5,1.5C37.6,82.2,37,81.7,36.5,80.9z"/>
</g>
</svg>
